<svg role="img" viewBox="0 0 512 512" xmlns="http://www.w3.org/2000/svg" id="N8n--Streamline-Simple-Icons" height="512" width="512"><desc>N8n Streamline Icon: https://streamlinehq.com</desc><title>n8n</title><path d="M458.1056 121.26293333333332c-25.113599999999998 0 -46.2144 17.175466666666665 -52.1984 40.42026666666666h-61.77066666666667c-26.346666666666668 0 -48.832 19.050666666666665 -53.16266666666667 45.034666666666666l-2.2144 13.290666666666667a26.943999999999996 26.943999999999996 0 0 1 -26.581333333333333 22.517333333333333H240.832c-5.984 -23.244799999999998 -27.0848 -40.42026666666666 -52.1984 -40.42026666666666s-46.2144 17.175466666666665 -52.19626666666666 40.42026666666666H106.09066666666666c-5.984 -23.244799999999998 -27.0848 -40.42026666666666 -52.1984 -40.42026666666666C24.130133333333333 202.10559999999998 0 226.23359999999997 0 256s24.128 53.8944 53.8944 53.8944c25.113599999999998 0 46.2144 -17.175466666666665 52.1984 -40.42026666666666h30.342399999999998c5.981866666666666 23.244799999999998 27.0848 40.42026666666666 52.19626666666666 40.42026666666666 25.113599999999998 0 46.2144 -17.175466666666665 52.1984 -40.42026666666666h21.350399999999997a26.943999999999996 26.943999999999996 0 0 1 26.5792 22.517333333333333l2.2144 13.290666666666667c4.330666666666667 25.983999999999998 26.815999999999995 45.034666666666666 53.16266666666667 45.034666666666666h7.876266666666666c5.981866666666666 23.242666666666665 27.0848 40.42026666666666 52.1984 40.42026666666666 29.764266666666664 0 53.8944 -24.128 53.8944 -53.8944s-24.128 -53.8944 -53.8944 -53.8944c-25.113599999999998 0 -46.21653333333333 17.173333333333332 -52.1984 40.42026666666666h-7.876266666666666a26.943999999999996 26.943999999999996 0 0 1 -26.581333333333333 -22.517333333333333l-2.2122666666666664 -13.290666666666667A53.76 53.76 0 0 0 297.82826666666665 256a53.76 53.76 0 0 0 17.514666666666663 -31.560533333333332l2.2144 -13.290666666666667a26.943999999999996 26.943999999999996 0 0 1 26.5792 -22.517333333333333h61.77066666666667c5.984 23.244799999999998 27.0848 40.42026666666666 52.1984 40.42026666666666 29.764266666666664 0 53.8944 -24.128 53.8944 -53.8944s-24.128 -53.8944 -53.8944 -53.8944m0 26.94826666666667a26.943999999999996 26.943999999999996 0 0 1 26.94613333333333 26.94613333333333 26.943999999999996 26.943999999999996 0 0 1 -26.94613333333333 26.94826666666667 26.943999999999996 26.943999999999996 0 0 1 -26.94826666666667 -26.94826666666667 26.943999999999996 26.943999999999996 0 0 1 26.94826666666667 -26.94613333333333M53.8944 229.05173333333335A26.943999999999996 26.943999999999996 0 0 1 80.84266666666666 256a26.943999999999996 26.943999999999996 0 0 1 -26.94826666666667 26.94826666666667A26.943999999999996 26.943999999999996 0 0 1 26.94826666666667 256a26.943999999999996 26.943999999999996 0 0 1 26.94613333333333 -26.94826666666667m134.73706666666666 0A26.943999999999996 26.943999999999996 0 0 1 215.5797333333333 256a26.943999999999996 26.943999999999996 0 0 1 -26.94826666666667 26.94826666666667A26.943999999999996 26.943999999999996 0 0 1 161.68533333333332 256a26.943999999999996 26.943999999999996 0 0 1 26.94826666666667 -26.94826666666667m215.5797333333333 80.84266666666666a26.943999999999996 26.943999999999996 0 0 1 26.94613333333333 26.94826666666667 26.943999999999996 26.943999999999996 0 0 1 -26.94613333333333 26.94613333333333 26.943999999999996 26.943999999999996 0 0 1 -26.94826666666667 -26.94613333333333 26.943999999999996 26.943999999999996 0 0 1 26.94826666666667 -26.94826666666667" fill="#000000" stroke-width="21.3333"></path></svg>